<svg xmlns="http://www.w3.org/2000/svg" viewBox="0 0 96 96">
    <defs>
        <linearGradient id="aurora-favicon-gradient" x1="5%" y1="10%" x2="95%" y2="90%">
            <stop offset="0%" stop-color="#38bdf8"/>
            <stop offset="45%" stop-color="#6366f1"/>
            <stop offset="100%" stop-color="#312e81"/>
        </linearGradient>
        <linearGradient id="aurora-favicon-page" x1="0%" y1="0%" x2="100%" y2="100%">
            <stop offset="0%" stop-color="#f8fafc"/>
            <stop offset="100%" stop-color="#dbeafe"/>
        </linearGradient>
    </defs>
    <rect x="6" y="6" width="84" height="84" rx="22" fill="url(#aurora-favicon-gradient)"/>
    <g transform="translate(24 26)" fill="none" stroke-linecap="round" stroke-linejoin="round">
        <path d="M24 44C13.2 34.6 4.8 34.6 0 34.6V11.4C9.6 10.5 20.4 13.6 24 19.2V44z" fill="url(#aurora-favicon-page)"/>
        <path d="M24 19.2c8.4-6.3 18-8.9 24-8v23.4c-4.3 0-15 0-24 9.4V19.2z" fill="rgba(248,250,252,0.68)"/>
        <path d="M0 11c6.6-.6 16 1.5 24 7.4C32 12.5 41.4 10.4 48 11" stroke="rgba(248,250,252,0.9)" stroke-width="3.8"/>
        <path d="M0 36c4.3 0 15 0 24 9.4 9-9.4 19.7-9.4 24-9.4" stroke="rgba(255,255,255,0.9)" stroke-width="3.8"/>
        <path d="M24 19v26" stroke="#4f46e5" stroke-width="3.4" opacity="0.7" stroke-linecap="square"/>
        <circle cx="24" cy="9" r="6" fill="#22d3ee" opacity="0.75"/>
    </g>
</svg>
